<?xml version="1.0" encoding="UTF-8"?>
<!DOCTYPE svg PUBLIC "-//W3C//DTD SVG 1.1//EN" "http://www.w3.org/Graphics/SVG/1.1/DTD/svg11.dtd">
<!-- Creator: CorelDRAW 2020 -->
<svg xmlns="http://www.w3.org/2000/svg" xml:space="preserve" width="84.6666mm" height="84.6666mm" version="1.1" style="shape-rendering:geometricPrecision; text-rendering:geometricPrecision; image-rendering:optimizeQuality; fill-rule:evenodd; clip-rule:evenodd"
viewBox="0 0 8466.66 8466.66"
 xmlns:xlink="http://www.w3.org/1999/xlink"
 xmlns:xodm="http://www.corel.com/coreldraw/odm/2003">
 <defs>
  <style type="text/css">
   <![CDATA[
    .fil1 {fill:#990000}
    .fil0 {fill:#99CC33}
    .fil2 {fill:#FFCC00}
    .fil3 {fill:#990000;fill-rule:nonzero}
   ]]>
  </style>
 </defs>
 <g id="Capa_x0020_1">
  <metadata id="CorelCorpID_0Corel-Layer"/>
  <g id="_2088330200">
   <g>
    <g>
     <path class="fil0" d="M1977.77 4365.69c-6.16,19.14 -9.49,39.56 -9.49,60.75 0,95.16 67.04,174.65 156.47,193.85 11.35,2.43 19.25,12.2 19.25,23.81l0 72.87c0,13.42 -10.95,24.36 -24.37,24.36l-456.29 0c-8.94,0 -16.62,-4.43 -21.09,-12.18 -4.48,-7.75 -4.48,-16.62 0,-24.36l228.14 -395.16c6.71,-11.62 21.66,-15.63 33.28,-8.92l63.09 36.42c10.05,5.81 14.56,17.52 11.01,28.56z"/>
     <path class="fil1" d="M2462.73 4309.63l228.15 395.16c4.47,7.74 4.47,16.61 0,24.36 -4.48,7.75 -12.16,12.18 -21.1,12.18l-456.29 0c-13.42,0 -24.36,-10.94 -24.36,-24.36l0 -72.87c0,-11.61 7.89,-21.38 19.25,-23.81 89.42,-19.2 156.47,-98.69 156.47,-193.85 0,-21.19 -3.34,-41.6 -9.49,-60.75 -3.56,-11.04 0.96,-22.75 11.01,-28.56l63.08 -36.42c11.62,-6.71 26.57,-2.7 33.28,8.92z"/>
     <path class="fil2" d="M2187.66 3833.19l228.14 395.16c6.71,11.62 2.71,26.57 -8.91,33.28l-63.13 36.44c-10.05,5.81 -22.44,3.86 -30.23,-4.74 -36.28,-40.03 -88.69,-65.18 -146.97,-65.18 -58.28,0 -110.69,25.15 -146.96,65.19 -7.79,8.59 -20.19,10.54 -30.24,4.74l-63.12 -36.45c-11.63,-6.71 -15.63,-21.66 -8.92,-33.28l228.14 -395.16c4.48,-7.74 12.16,-12.18 21.1,-12.18 8.95,0 16.63,4.44 21.1,12.18z"/>
    </g>
    <g>
     <path class="fil3" d="M6286.61 3829.68l42.77 0 91.86 0 148.17 0c49.32,0 91.86,9.53 128.06,28.58 36.19,19.05 63.92,46.35 83.39,82.13 19.48,35.77 29.21,77.89 29.21,126.15l0 52.7c0,49.32 -9.73,92.08 -29.21,128.06 -19.47,36.2 -47.2,64.14 -83.61,83.4 -2.62,1.4 -5.27,2.75 -7.94,4.05 -12.36,5.99 -17.71,20.77 -12.06,33.29l148.18 328.14c3.65,8.09 3,16.76 -1.81,24.22 -4.82,7.46 -12.45,11.62 -21.33,11.62l-129.27 0c-10.42,0 -19.32,-5.9 -23.38,-15.5l-144.21 -341.11c-4.06,-9.6 -12.96,-15.5 -23.38,-15.5l-35.42 0c-13.98,0 -25.39,11.41 -25.39,25.39l0 321.33c0,13.98 -11.41,25.39 -25.39,25.39l-109.24 0c-13.98,0 -25.39,-11.41 -25.39,-25.39l0 -851.56c0,-13.98 11.41,-25.39 25.39,-25.39zm134.63 181.18l0 168.08c0,13.98 11.41,25.39 25.39,25.39l120.87 0c15.37,0 28.66,-3.34 39.83,-10.26 0.13,-0.08 0.23,-0.14 0.36,-0.22 11.33,-6.76 20.17,-16.25 26.28,-28.67 6.13,-12.28 9.31,-27.1 9.31,-44.03l0 -50.17c0,-17.27 -2.93,-32.46 -9.02,-45.33 -0.06,-0.12 -0.11,-0.22 -0.16,-0.34 -5.93,-13.04 -14.58,-22.94 -26.17,-29.68 -11.64,-6.77 -24.98,-10.16 -40.43,-10.16l-120.87 0c-13.98,0 -25.39,11.41 -25.39,25.39z"/>
     <path class="fil3" d="M5930.81 4741.33c-56.73,0 -106.04,-11 -148.38,-33.23 -42.12,-22.01 -74.5,-53.55 -97.36,-94.61 -22.65,-40.86 -34.08,-88.9 -34.08,-144.36l0 -375.92c0,-55.25 11.43,-103.51 34.08,-144.78 22.86,-41.06 55.24,-72.6 97.36,-94.4 42.34,-22.02 91.65,-33.02 148.38,-33.02 56.94,0 106.47,11 148.8,33.02 42.12,21.8 74.51,53.34 97.37,94.4 22.65,41.27 34.08,89.53 34.08,144.78l0 375.92c0,55.46 -11.43,103.5 -34.08,144.36 -22.86,41.06 -55.25,72.6 -97.37,94.61 -42.33,22.23 -91.86,33.23 -148.8,33.23zm0 -161.92c23.07,0 43.39,-4.87 60.75,-14.61 17.36,-9.52 30.48,-23.28 39.58,-41.06 9.1,-17.78 13.76,-38.74 13.76,-62.65l0 -360.9c0,-23.7 -4.66,-44.23 -13.76,-62.01 -9.1,-17.78 -22.22,-31.54 -39.58,-41.28 -17.36,-9.74 -37.68,-14.6 -60.75,-14.6 -23.28,0 -43.39,4.86 -60.54,14.6 -17.14,9.74 -30.26,23.5 -39.37,41.28 -9.1,17.78 -13.75,38.31 -13.75,62.01l0 360.9c0,23.91 4.65,44.87 13.75,62.65 9.11,17.78 22.23,31.54 39.37,41.06 17.15,9.74 37.26,14.61 60.54,14.61z"/>
     <path class="fil3" d="M5337.08 4741.33c-57.15,0 -105.83,-11 -146.47,-33.23 -40.43,-22.01 -71.54,-54.19 -92.92,-96.31 -21.59,-42.33 -32.39,-93.34 -32.39,-153.24l0 -354.12c0,-59.9 10.8,-111.13 32.39,-153.46 21.38,-42.33 52.49,-74.51 92.92,-96.73 40.64,-22.02 89.32,-33.23 146.47,-33.23 56.09,0 103.51,11.21 141.82,33.44 38.52,22.44 68.37,56.3 89.75,101.39 18.26,39.07 30.23,87.14 35.88,144.18 0.73,7.4 -1.46,14.04 -6.45,19.55 -4.99,5.51 -11.39,8.35 -18.82,8.35l-115.79 0c-12.82,0 -23.49,-9.36 -25.17,-22.07 -3.01,-22.85 -7.75,-42.34 -14.22,-58.36 -8.47,-21.17 -19.9,-37.04 -34.29,-47.41 -14.61,-10.59 -32.18,-15.88 -52.71,-15.88 -22.01,0 -40.85,4.66 -56.51,13.97 -15.67,9.31 -27.73,22.86 -35.99,40.85 -8.25,17.99 -12.48,39.8 -12.48,65.41l0 354.12c0,25.61 4.23,47.41 12.48,65.19 8.26,17.78 20.32,31.33 35.99,40.64 15.66,9.1 34.5,13.76 56.51,13.76 20.53,0 38.31,-5.08 52.92,-15.45 14.6,-10.38 26.25,-26.04 34.71,-47.42 6.45,-16.29 11.06,-35.77 13.82,-58.52 1.56,-12.82 12.3,-22.33 25.21,-22.33l115.37 0c7.45,0 13.87,2.85 18.86,8.39 4.99,5.54 7.16,12.22 6.39,19.63 -5.93,56.97 -17.89,105 -36.14,144.06 -20.95,45.3 -50.8,78.95 -89.32,101.39 -38.31,22.22 -85.73,33.44 -141.82,33.44z"/>
     <path class="fil3" d="M4874.59 4390.04l0 316.59c0,13.98 -11.41,25.39 -25.39,25.39l-111.15 0c-13.98,0 -25.39,-11.41 -25.39,-25.39l0 -316.53c0,-3.32 -0.53,-6.16 -1.74,-9.25l-201.68 -515.9c-3.15,-8.06 -2.2,-16.42 2.68,-23.56 4.88,-7.14 12.32,-11.07 20.97,-11.07l113.27 0c11.09,0 20.52,6.77 24.06,17.28l98.23 291.6c3.54,10.53 13,17.31 24.11,17.29 11.11,-0.02 20.53,-6.84 24.04,-17.38l96.87 -291.41c3.51,-10.56 12.97,-17.38 24.1,-17.38l114.01 0c8.63,0 16.05,3.91 20.93,11.02 4.89,7.12 5.86,15.45 2.76,23.5l-198.98 516.06c-1.18,3.06 -1.7,5.86 -1.7,9.14z"/>
     <path class="fil3" d="M3985.79 3830.32l39.17 0 97.37 0 314.97 0c13.98,0 25.39,11.41 25.39,25.39l0 106.06c0,13.98 -11.41,25.39 -25.39,25.39l-289.58 0c-13.98,0 -25.39,11.41 -25.39,25.39l0 167.66c0,13.98 11.41,25.39 25.39,25.39l240.05 0c13.98,0 25.39,11.41 25.39,25.39l0 106.07c0,13.98 -11.41,25.39 -25.39,25.39l-240.05 0c-13.98,0 -25.39,11.41 -25.39,25.39l0 161.94c0,13.98 11.41,25.39 25.39,25.39l289.58 0c13.98,0 25.39,11.41 25.39,25.39l0 106.07c0,13.98 -11.41,25.39 -25.39,25.39l-314.97 0 -97.37 0 -39.17 0c-13.98,0 -25.39,-11.41 -25.39,-25.39l0 -850.92c0,-13.98 11.41,-25.39 25.39,-25.39z"/>
     <path class="fil3" d="M3373.87 3829.68l42.77 0 91.86 0 148.17 0c49.32,0 91.86,9.53 128.06,28.58 36.19,19.05 63.92,46.35 83.39,82.13 19.48,35.77 29.21,77.89 29.21,126.15l0 52.7c0,49.32 -9.73,92.08 -29.21,128.06 -19.47,36.2 -47.2,64.14 -83.61,83.4 -2.62,1.4 -5.27,2.75 -7.94,4.05 -12.36,5.99 -17.71,20.77 -12.06,33.29l148.18 328.14c3.65,8.09 3,16.76 -1.81,24.22 -4.82,7.46 -12.45,11.62 -21.33,11.62l-129.27 0c-10.42,0 -19.32,-5.9 -23.38,-15.5l-144.21 -341.11c-4.06,-9.6 -12.96,-15.5 -23.38,-15.5l-35.42 0c-13.98,0 -25.39,11.41 -25.39,25.39l0 321.33c0,13.98 -11.41,25.39 -25.39,25.39l-109.24 0c-13.98,0 -25.39,-11.41 -25.39,-25.39l0 -851.56c0,-13.98 11.41,-25.39 25.39,-25.39zm134.63 181.18l0 168.08c0,13.98 11.41,25.39 25.39,25.39l120.87 0c15.37,0 28.66,-3.34 39.83,-10.26 0.13,-0.08 0.23,-0.14 0.36,-0.22 11.33,-6.76 20.17,-16.25 26.28,-28.67 6.13,-12.28 9.31,-27.1 9.31,-44.03l0 -50.17c0,-17.27 -2.93,-32.46 -9.02,-45.33 -0.06,-0.12 -0.11,-0.22 -0.16,-0.34 -5.93,-13.04 -14.58,-22.94 -26.17,-29.68 -11.64,-6.77 -24.98,-10.16 -40.43,-10.16l-120.87 0c-13.98,0 -25.39,11.41 -25.39,25.39z"/>
     <path class="fil3" d="M2772.74 3830.32l49.12 0 87.42 0 136.31 0c50.59,0 94.4,9.74 131.87,28.79 37.46,19.26 66.04,46.99 86.15,83.18 20.1,36.2 30.05,78.74 30.05,127.42l0 75.78c0,48.26 -10.16,90.17 -30.27,125.73 -20.32,35.56 -49.1,63.08 -86.36,82.13 -37.04,19.26 -80.85,29 -131.44,29l-110.92 0c-13.98,0 -25.39,11.41 -25.39,25.39l0 298.89c0,13.98 -11.41,25.39 -25.39,25.39l-111.15 0c-13.98,0 -25.39,-11.41 -25.39,-25.39l0 -850.92c0,-13.98 11.41,-25.39 25.39,-25.39zm136.54 181.18l0 189.67c0,13.98 11.41,25.39 25.39,25.39l110.92 0c16.72,0 30.9,-3.81 43.18,-11.43 12.28,-7.62 21.8,-18.42 28.57,-32.6 6.78,-13.97 10.16,-30.27 10.16,-48.89l0 -52.71c0,-19.47 -3.38,-36.4 -9.94,-50.59 -6.57,-14.18 -15.88,-25.18 -28.16,-32.8 -12.27,-7.62 -26.88,-11.43 -43.81,-11.43l-110.92 0c-13.98,0 -25.39,11.41 -25.39,25.39z"/>
    </g>
   </g>
   <polygon class="fil3" points="1799.95,4856.88 1843.5,4856.88 1843.5,5032.21 1813.49,5032.21 1813.49,4896.06 1814.69,4903.8 1781.14,5012.66 1751.96,5012.66 1718.46,4906.19 1719.66,4896.06 1719.66,5032.21 1689.65,5032.21 1689.65,4856.88 1733.16,4856.88 1766.57,4975.04 "/>
   <path id="1" class="fil3" d="M1929.84 4856.88l20.95 0 67.05 175.33 -35.56 0 -41.98 -119.72 -41.94 119.72 -35.56 0 67.04 -175.33zm-34.86 115.41l92.23 0 0 31.81 -92.23 0 0 -31.81z"/>
   <polygon id="2" class="fil3" points="2039.56,4856.88 2079.94,4856.88 2145.17,4991.22 2142.29,4994.35 2142.29,4856.88 2173.86,4856.88 2173.86,5032.09 2133.24,5032.09 2068.25,4899.81 2071.13,4896.68 2071.13,5032.09 2039.56,5032.09 "/>
   <path id="3" class="fil3" d="M2245.76 4871.25l33.05 0 0 160.96 -33.05 0 0 -160.96zm-47.75 -14.37l128.54 0 0 31.86 -128.54 0 0 -31.86z"/>
   <path id="4" class="fil3" d="M2345.85 4856.88l33.01 0 0 175.33 -33.01 0 0 -175.33zm11.94 143.52l105.48 0 0 31.81 -105.48 0 0 -31.81zm0 -71.16l92.23 0 0 31.81 -92.23 0 0 -31.81zm0 -72.36l105.48 0 0 31.86 -105.48 0 0 -31.86z"/>
   <polygon id="5" class="fil3" points="2493.44,4856.88 2533.82,4856.88 2599.05,4991.22 2596.17,4994.35 2596.17,4856.88 2627.74,4856.88 2627.74,5032.09 2587.12,5032.09 2522.13,4899.81 2525.01,4896.68 2525.01,5032.09 2493.44,5032.09 "/>
   <polygon id="6" class="fil3" points="2698.16,5032.21 2663.91,5032.21 2663.91,4856.88 2698.16,4856.88 "/>
   <polygon id="7" class="fil3" points="2844.63,4856.88 2888.18,4856.88 2888.18,5032.21 2858.17,5032.21 2858.17,4896.06 2859.37,4903.8 2825.82,5012.66 2796.64,5012.66 2763.14,4906.19 2764.34,4896.06 2764.34,5032.21 2734.33,5032.21 2734.33,4856.88 2777.84,4856.88 2811.25,4975.04 "/>
   <polygon id="8" class="fil3" points="2958.6,5032.21 2924.35,5032.21 2924.35,4856.88 2958.6,4856.88 "/>
   <path id="9" class="fil3" d="M2994.77 4856.88l33.01 0 0 175.33 -33.01 0 0 -175.33zm11.94 143.52l105.48 0 0 31.81 -105.48 0 0 -31.81zm0 -71.16l92.23 0 0 31.81 -92.23 0 0 -31.81zm0 -72.36l105.48 0 0 31.86 -105.48 0 0 -31.86z"/>
   <polygon id="10" class="fil3" points="3142.36,4856.88 3182.74,4856.88 3247.97,4991.22 3245.09,4994.35 3245.09,4856.88 3276.66,4856.88 3276.66,5032.09 3236.04,5032.09 3171.05,4899.81 3173.93,4896.68 3173.93,5032.09 3142.36,5032.09 "/>
   <path id="11" class="fil3" d="M3348.56 4871.25l33.05 0 0 160.96 -33.05 0 0 -160.96zm-47.75 -14.37l128.54 0 0 31.86 -128.54 0 0 -31.86z"/>
   <path id="12" class="fil3" d="M3504.25 5034.02c-12.72,0 -23.91,-2.67 -33.58,-8.02 -9.72,-5.36 -17.21,-12.89 -22.52,-22.68 -5.31,-9.76 -7.94,-21.07 -7.94,-33.92l0 -49.67c0,-12.88 2.63,-24.2 7.94,-33.96 5.31,-9.75 12.8,-17.32 22.52,-22.67 9.67,-5.35 20.86,-8.03 33.58,-8.03 12.68,0 23.87,2.68 33.54,8.03 9.72,5.35 17.21,12.92 22.52,22.67 5.31,9.76 7.94,21.08 7.94,33.96l0 49.67c0,12.85 -2.63,24.16 -7.94,33.92 -5.31,9.79 -12.8,17.32 -22.52,22.68 -9.67,5.35 -20.86,8.02 -33.54,8.02zm0 -33.05c5.93,0 11.15,-1.27 15.64,-3.78 4.53,-2.56 7.98,-6.14 10.45,-10.79 2.43,-4.69 3.67,-10.04 3.67,-16.17l0 -51.37c0,-6.09 -1.24,-11.48 -3.67,-16.13 -2.47,-4.69 -5.92,-8.27 -10.45,-10.82 -4.49,-2.51 -9.71,-3.79 -15.64,-3.79 -5.97,0 -11.19,1.28 -15.68,3.79 -4.53,2.55 -7.98,6.13 -10.45,10.82 -2.43,4.65 -3.67,10.04 -3.67,16.13l0 51.37c0,6.13 1.24,11.48 3.67,16.17 2.47,4.65 5.92,8.23 10.45,10.79 4.49,2.51 9.71,3.78 15.68,3.78z"/>
   <polygon id="13" class="fil3" points="3728.84,4964.55 3728.84,5032.21 3695.79,5032.21 3695.79,4964.55 3644.22,4856.88 3678.79,4856.88 3712.34,4932.36 3745.84,4856.88 3780.45,4856.88 "/>
   <path id="14" class="fil3" d="M3915.15 5034.02c-8.39,0 -16.54,-0.86 -24.57,-2.55 -7.98,-1.69 -15.52,-4.16 -22.51,-7.41 -7.04,-3.25 -13.34,-7.16 -18.89,-11.73l0 0 15.31 -27.29 0 0c6.75,5.56 14.57,9.84 23.42,12.89 8.8,3 17.9,4.48 27.24,4.48 10.74,0 19.1,-1.81 25.07,-5.47 5.96,-3.66 8.93,-8.81 8.93,-15.48l0 -0.12c0,-4.69 -1.32,-8.35 -4,-11.11 -2.63,-2.72 -6.09,-4.73 -10.37,-6.01 -4.24,-1.32 -9.71,-2.47 -16.38,-3.5 -0.24,-0.08 -0.49,-0.12 -0.66,-0.12 -0.2,0 -0.45,-0.04 -0.7,-0.13l-2.63 -0.37c-11.73,-1.85 -21.44,-4.15 -29.18,-6.91 -7.7,-2.8 -14.28,-7.66 -19.63,-14.61 -5.39,-6.96 -8.11,-16.83 -8.11,-29.59l0 -0.13c0,-11.31 2.55,-21.03 7.61,-29.05 5.07,-8.03 12.43,-14.16 22.06,-18.4 9.64,-4.2 21.32,-6.34 34.99,-6.34 6.25,0 12.67,0.74 19.22,2.18 6.54,1.44 12.96,3.54 19.22,6.26 6.25,2.76 12.22,6.05 17.86,9.92l0 0 -13.99 27.94 0 0c-6.75,-4.65 -13.83,-8.27 -21.16,-10.82 -7.36,-2.59 -14.4,-3.87 -21.15,-3.87 -10.17,0 -17.99,1.65 -23.54,4.98 -5.56,3.37 -8.32,8.03 -8.32,14.08l0 0.12c0,5.06 1.44,9.05 4.37,11.98 2.88,2.92 6.46,5.1 10.7,6.46 4.28,1.36 10.24,2.8 17.98,4.32 0.33,0.08 0.62,0.16 0.95,0.2 0.33,0.05 0.66,0.09 0.99,0.17 0.45,0.08 0.94,0.2 1.35,0.33 0.46,0.08 0.91,0.2 1.4,0.29 11.12,2.18 20.38,4.81 27.78,7.9 7.45,3.09 13.67,8.07 18.65,14.94 4.98,6.87 7.49,16.26 7.49,28.15l0 0.25c0,11.15 -2.64,20.74 -7.86,28.68 -5.23,7.99 -12.84,14.04 -22.84,18.24 -10.01,4.15 -22.06,6.25 -36.1,6.25z"/>
   <path id="15" class="fil3" d="M4067.68 5034.02c-12.72,0 -23.91,-2.67 -33.58,-8.02 -9.72,-5.36 -17.21,-12.89 -22.52,-22.68 -5.31,-9.76 -7.94,-21.07 -7.94,-33.92l0 -49.67c0,-12.88 2.63,-24.2 7.94,-33.96 5.31,-9.75 12.8,-17.32 22.52,-22.67 9.67,-5.35 20.86,-8.03 33.58,-8.03 12.68,0 23.87,2.68 33.54,8.03 9.72,5.35 17.21,12.92 22.52,22.67 5.31,9.76 7.94,21.08 7.94,33.96l0 49.67c0,12.85 -2.63,24.16 -7.94,33.92 -5.31,9.79 -12.8,17.32 -22.52,22.68 -9.67,5.35 -20.86,8.02 -33.54,8.02zm0 -33.05c5.93,0 11.15,-1.27 15.64,-3.78 4.53,-2.56 7.98,-6.14 10.45,-10.79 2.43,-4.69 3.67,-10.04 3.67,-16.17l0 -51.37c0,-6.09 -1.24,-11.48 -3.67,-16.13 -2.47,-4.69 -5.92,-8.27 -10.45,-10.82 -4.49,-2.51 -9.71,-3.79 -15.64,-3.79 -5.97,0 -11.19,1.28 -15.68,3.79 -4.53,2.55 -7.98,6.13 -10.45,10.82 -2.43,4.65 -3.67,10.04 -3.67,16.13l0 51.37c0,6.13 1.24,11.48 3.67,16.17 2.47,4.65 5.92,8.23 10.45,10.79 4.49,2.51 9.71,3.78 15.68,3.78z"/>
   <path id="16" class="fil3" d="M4164.23 4856.88l33.01 0 0 175.33 -33.01 0 0 -175.33zm14.7 143.52l102.72 0 0 31.81 -102.72 0 0 -31.81z"/>
   <path id="17" class="fil3" d="M4362.44 5034.02c-13.5,0 -25.06,-2.55 -34.61,-7.65 -9.55,-5.11 -16.84,-12.56 -21.82,-22.31 -4.98,-9.76 -7.49,-21.53 -7.49,-35.27l0 -111.91 33.05 0 0 112.73c0,10.08 2.68,17.86 8.07,23.42 5.39,5.56 13.01,8.31 22.8,8.31 9.88,0 17.53,-2.75 22.97,-8.31 5.43,-5.56 8.14,-13.34 8.14,-23.42l0 -112.73 33.01 0 0 111.91c0,13.74 -2.51,25.51 -7.53,35.27 -5.02,9.75 -12.3,17.2 -21.94,22.31 -9.59,5.1 -21.15,7.65 -34.65,7.65z"/>
   <path id="18" class="fil3" d="M4517.72 5034.02c-13.33,0 -24.77,-2.55 -34.24,-7.65 -9.51,-5.11 -16.71,-12.56 -21.69,-22.31 -5.02,-9.76 -7.49,-21.57 -7.49,-35.4l0 -48.11c0,-13.83 2.47,-25.6 7.49,-35.39 4.98,-9.76 12.18,-17.21 21.69,-22.35 9.47,-5.15 20.91,-7.74 34.24,-7.74 10.99,0 20.87,2.39 29.55,7.12 8.69,4.73 15.85,11.65 21.53,20.7 5.64,9.02 9.59,19.92 11.73,32.72l0 0 -34.24 0 0 0c-1.28,-5.8 -3.26,-10.74 -5.97,-14.81 -2.68,-4.12 -5.93,-7.25 -9.76,-9.43 -3.82,-2.18 -8.1,-3.25 -12.84,-3.25 -6.21,0 -11.44,1.28 -15.8,3.79 -4.32,2.55 -7.66,6.25 -9.96,11.11 -2.26,4.86 -3.42,10.7 -3.42,17.53l0 48.11c0,6.84 1.16,12.68 3.42,17.5 2.3,4.81 5.64,8.47 9.96,11.03 4.36,2.51 9.59,3.78 15.8,3.78 4.82,0 9.18,-1.07 13.01,-3.17 3.87,-2.14 7.12,-5.27 9.79,-9.34 2.64,-4.12 4.57,-9.1 5.77,-14.98l0 0 34.24 0 0 0c-2.22,12.8 -6.22,23.71 -11.85,32.76 -5.68,9.01 -12.85,15.93 -21.49,20.66 -8.64,4.73 -18.48,7.12 -29.47,7.12z"/>
   <polygon id="19" class="fil3" points="4640.09,5032.21 4605.84,5032.21 4605.84,4856.88 4640.09,4856.88 "/>
   <path id="20" class="fil3" d="M4736.68 5034.02c-12.72,0 -23.91,-2.67 -33.58,-8.02 -9.72,-5.36 -17.21,-12.89 -22.52,-22.68 -5.31,-9.76 -7.94,-21.07 -7.94,-33.92l0 -49.67c0,-12.88 2.63,-24.2 7.94,-33.96 5.31,-9.75 12.8,-17.32 22.52,-22.67 9.67,-5.35 20.86,-8.03 33.58,-8.03 12.68,0 23.87,2.68 33.54,8.03 9.72,5.35 17.21,12.92 22.52,22.67 5.31,9.76 7.94,21.08 7.94,33.96l0 49.67c0,12.85 -2.63,24.16 -7.94,33.92 -5.31,9.79 -12.8,17.32 -22.52,22.68 -9.67,5.35 -20.86,8.02 -33.54,8.02zm0 -33.05c5.93,0 11.15,-1.27 15.64,-3.78 4.53,-2.56 7.98,-6.14 10.45,-10.79 2.43,-4.69 3.67,-10.04 3.67,-16.17l0 -51.37c0,-6.09 -1.24,-11.48 -3.67,-16.13 -2.47,-4.69 -5.92,-8.27 -10.45,-10.82 -4.49,-2.51 -9.71,-3.79 -15.64,-3.79 -5.97,0 -11.19,1.28 -15.68,3.79 -4.53,2.55 -7.98,6.13 -10.45,10.82 -2.43,4.65 -3.67,10.04 -3.67,16.13l0 51.37c0,6.13 1.24,11.48 3.67,16.17 2.47,4.65 5.92,8.23 10.45,10.79 4.49,2.51 9.71,3.78 15.68,3.78z"/>
   <polygon id="21" class="fil3" points="4833.23,4856.88 4873.61,4856.88 4938.84,4991.22 4935.96,4994.35 4935.96,4856.88 4967.53,4856.88 4967.53,5032.09 4926.91,5032.09 4861.92,4899.81 4864.8,4896.68 4864.8,5032.09 4833.23,5032.09 "/>
   <path id="22" class="fil3" d="M5006.13 4856.88l33.01 0 0 175.33 -33.01 0 0 -175.33zm11.94 143.52l105.48 0 0 31.81 -105.48 0 0 -31.81zm0 -71.16l92.23 0 0 31.81 -92.23 0 0 -31.81zm0 -72.36l105.48 0 0 31.86 -105.48 0 0 -31.86z"/>
   <path id="23" class="fil3" d="M5208.83 5034.02c-8.39,0 -16.54,-0.86 -24.57,-2.55 -7.98,-1.69 -15.52,-4.16 -22.51,-7.41 -7.04,-3.25 -13.34,-7.16 -18.89,-11.73l0 0 15.31 -27.29 0 0c6.75,5.56 14.57,9.84 23.42,12.89 8.8,3 17.9,4.48 27.24,4.48 10.74,0 19.1,-1.81 25.07,-5.47 5.96,-3.66 8.93,-8.81 8.93,-15.48l0 -0.12c0,-4.69 -1.32,-8.35 -4,-11.11 -2.63,-2.72 -6.09,-4.73 -10.37,-6.01 -4.24,-1.32 -9.71,-2.47 -16.38,-3.5 -0.24,-0.08 -0.49,-0.12 -0.66,-0.12 -0.2,0 -0.45,-0.04 -0.7,-0.13l-2.63 -0.37c-11.73,-1.85 -21.44,-4.15 -29.18,-6.91 -7.7,-2.8 -14.28,-7.66 -19.63,-14.61 -5.39,-6.96 -8.11,-16.83 -8.11,-29.59l0 -0.13c0,-11.31 2.55,-21.03 7.61,-29.05 5.07,-8.03 12.43,-14.16 22.06,-18.4 9.64,-4.2 21.32,-6.34 34.99,-6.34 6.25,0 12.67,0.74 19.22,2.18 6.54,1.44 12.96,3.54 19.22,6.26 6.25,2.76 12.22,6.05 17.86,9.92l0 0 -13.99 27.94 0 0c-6.75,-4.65 -13.83,-8.27 -21.16,-10.82 -7.36,-2.59 -14.4,-3.87 -21.15,-3.87 -10.17,0 -17.99,1.65 -23.54,4.98 -5.56,3.37 -8.32,8.03 -8.32,14.08l0 0.12c0,5.06 1.44,9.05 4.37,11.98 2.88,2.92 6.46,5.1 10.7,6.46 4.28,1.36 10.24,2.8 17.98,4.32 0.33,0.08 0.62,0.16 0.95,0.2 0.33,0.05 0.66,0.09 0.99,0.17 0.45,0.08 0.94,0.2 1.35,0.33 0.46,0.08 0.91,0.2 1.4,0.29 11.12,2.18 20.38,4.81 27.78,7.9 7.45,3.09 13.67,8.07 18.65,14.94 4.98,6.87 7.49,16.26 7.49,28.15l0 0.25c0,11.15 -2.64,20.74 -7.86,28.68 -5.23,7.99 -12.84,14.04 -22.84,18.24 -10.01,4.15 -22.06,6.25 -36.1,6.25z"/>
   <polygon id="24" class="fil3" points="5403.87,5032.21 5369.62,5032.21 5369.62,4856.88 5403.87,4856.88 "/>
   <polygon id="25" class="fil3" points="5440.04,4856.88 5480.42,4856.88 5545.65,4991.22 5542.77,4994.35 5542.77,4856.88 5574.34,4856.88 5574.34,5032.09 5533.72,5032.09 5468.73,4899.81 5471.61,4896.68 5471.61,5032.09 5440.04,5032.09 "/>
   <path id="26" class="fil3" d="M5646.24 4871.25l33.05 0 0 160.96 -33.05 0 0 -160.96zm-47.75 -14.37l128.54 0 0 31.86 -128.54 0 0 -31.86z"/>
   <path id="27" class="fil3" d="M5746.33 4856.88l33.01 0 0 175.33 -33.01 0 0 -175.33zm11.94 143.52l105.48 0 0 31.81 -105.48 0 0 -31.81zm0 -71.16l92.23 0 0 31.81 -92.23 0 0 -31.81zm0 -72.36l105.48 0 0 31.86 -105.48 0 0 -31.86z"/>
   <path id="28" class="fil3" d="M6018.59 4934.17l0 34.25c0,13.04 -2.64,24.49 -7.91,34.45 -5.26,9.91 -12.71,17.57 -22.34,23 -9.68,5.43 -20.83,8.15 -33.55,8.15 -12.76,0 -24.03,-2.55 -33.83,-7.65 -9.75,-5.11 -17.28,-12.31 -22.63,-21.65 -5.35,-9.35 -8.03,-20.13 -8.03,-32.43l0 -51.74c0,-13 2.63,-24.49 7.9,-34.36 5.27,-9.88 12.72,-17.54 22.35,-22.97 9.67,-5.43 20.83,-8.15 33.54,-8.15 10.46,0 20.09,2.18 28.94,6.46 8.85,4.32 16.21,10.37 22.1,18.28 5.92,7.86 9.92,16.99 12.02,27.37l0 0 -35.69 0 0 0c-1.23,-3.71 -3.21,-6.92 -5.97,-9.59 -2.79,-2.68 -6.05,-4.74 -9.79,-6.14 -3.7,-1.44 -7.61,-2.14 -11.61,-2.14 -5.88,0 -11.03,1.32 -15.51,3.87 -4.45,2.6 -7.9,6.22 -10.37,10.99 -2.43,4.73 -3.67,10.21 -3.67,16.38l0 51.74c0,5.47 1.24,10.29 3.75,14.48 2.47,4.16 6.01,7.37 10.62,9.63 4.57,2.27 9.87,3.38 15.88,3.38 5.97,0 11.16,-1.24 15.64,-3.66 4.45,-2.47 7.9,-6.01 10.29,-10.71 2.43,-4.65 3.62,-10.16 3.62,-16.5l0 -2.88 -26.54 0 0 -31.86 60.79 0z"/>
   <path id="29" class="fil3" d="M6064.27 4929.85l61.04 0c3.37,0 6.33,-0.86 8.89,-2.55 2.59,-1.69 4.57,-4.07 5.96,-7.24 1.44,-3.13 2.19,-6.75 2.27,-10.83l0 0c0,-4.11 -0.74,-7.73 -2.14,-10.86 -1.4,-3.13 -3.38,-5.56 -5.97,-7.25 -2.55,-1.68 -5.6,-2.51 -9.01,-2.51l-61.04 0 0 -31.85 63.67 0c9.63,0 18.11,2.18 25.44,6.54 7.32,4.32 13,10.46 16.99,18.36 4.04,7.94 6.05,17.12 6.05,27.57l0 0c0,10.46 -2.01,19.64 -6.05,27.54 -3.99,7.94 -9.71,14.03 -17.04,18.39 -7.36,4.33 -15.84,6.51 -25.39,6.51l-63.67 0 0 -31.82zm-13.13 -73.09l33.01 0 0 175.45 -33.01 0 0 -175.45zm50.05 99.47l35.31 -5.51 47.25 81.49 -40.01 0 -42.55 -75.98z"/>
   <path id="30" class="fil3" d="M6256.26 4856.88l20.95 0 67.05 175.33 -35.56 0 -41.98 -119.72 -41.94 119.72 -35.56 0 67.04 -175.33zm-34.86 115.41l92.23 0 0 31.81 -92.23 0 0 -31.81z"/>
   <path id="31" class="fil3" d="M6365.98 4856.88l33.01 0 0 175.33 -33.01 0 0 -175.33zm14.7 143.52l102.72 0 0 31.81 -102.72 0 0 -31.81z"/>
   <path id="32" class="fil3" d="M6507.52 4856.88l33.01 0 0 175.33 -33.01 0 0 -175.33zm11.94 143.52l105.48 0 0 31.81 -105.48 0 0 -31.81zm0 -71.16l92.23 0 0 31.81 -92.23 0 0 -31.81zm0 -72.36l105.48 0 0 31.86 -105.48 0 0 -31.86z"/>
   <path id="33" class="fil3" d="M6710.22 5034.02c-8.39,0 -16.54,-0.86 -24.57,-2.55 -7.98,-1.69 -15.52,-4.16 -22.51,-7.41 -7.04,-3.25 -13.34,-7.16 -18.89,-11.73l0 0 15.31 -27.29 0 0c6.75,5.56 14.57,9.84 23.42,12.89 8.8,3 17.9,4.48 27.24,4.48 10.74,0 19.1,-1.81 25.07,-5.47 5.96,-3.66 8.93,-8.81 8.93,-15.48l0 -0.12c0,-4.69 -1.32,-8.35 -4,-11.11 -2.63,-2.72 -6.09,-4.73 -10.37,-6.01 -4.24,-1.32 -9.71,-2.47 -16.38,-3.5 -0.24,-0.08 -0.49,-0.12 -0.66,-0.12 -0.2,0 -0.45,-0.04 -0.7,-0.13l-2.63 -0.37c-11.73,-1.85 -21.44,-4.15 -29.18,-6.91 -7.7,-2.8 -14.28,-7.66 -19.63,-14.61 -5.39,-6.96 -8.11,-16.83 -8.11,-29.59l0 -0.13c0,-11.31 2.55,-21.03 7.61,-29.05 5.07,-8.03 12.43,-14.16 22.06,-18.4 9.64,-4.2 21.32,-6.34 34.99,-6.34 6.25,0 12.67,0.74 19.22,2.18 6.54,1.44 12.96,3.54 19.22,6.26 6.25,2.76 12.22,6.05 17.86,9.92l0 0 -13.99 27.94 0 0c-6.75,-4.65 -13.83,-8.27 -21.16,-10.82 -7.36,-2.59 -14.4,-3.87 -21.15,-3.87 -10.17,0 -17.99,1.65 -23.54,4.98 -5.56,3.37 -8.32,8.03 -8.32,14.08l0 0.12c0,5.06 1.44,9.05 4.37,11.98 2.88,2.92 6.46,5.1 10.7,6.46 4.28,1.36 10.24,2.8 17.98,4.32 0.33,0.08 0.62,0.16 0.95,0.2 0.33,0.05 0.66,0.09 0.99,0.17 0.45,0.08 0.94,0.2 1.35,0.33 0.46,0.08 0.91,0.2 1.4,0.29 11.12,2.18 20.38,4.81 27.78,7.9 7.45,3.09 13.67,8.07 18.65,14.94 4.98,6.87 7.49,16.26 7.49,28.15l0 0.25c0,11.15 -2.64,20.74 -7.86,28.68 -5.23,7.99 -12.84,14.04 -22.84,18.24 -10.01,4.15 -22.06,6.25 -36.1,6.25z"/>
  </g>
 </g>
</svg>
